<?xml version="1.0" standalone="no"?><!DOCTYPE svg PUBLIC "-//W3C//DTD SVG 1.1//EN" "http://www.w3.org/Graphics/SVG/1.1/DTD/svg11.dtd"><svg class="icon" width="200px" height="200.00px" viewBox="0 0 1024 1024" version="1.1" xmlns="http://www.w3.org/2000/svg"><path fill="#ffffff" d="M556.196 512.861L859.75 816.417c11.716 11.716 11.716 30.71 0 42.427-11.715 11.715-30.71 11.715-42.426 0L513.769 555.288 210.213 858.844c-11.716 11.715-30.71 11.715-42.426 0-11.716-11.716-11.716-30.711 0-42.427l303.556-303.556-304.556-304.556c-11.716-11.715-11.716-30.71 0-42.426 11.716-11.716 30.71-11.716 42.426 0L513.77 470.435l304.556-304.556c11.716-11.716 30.71-11.716 42.426 0 11.716 11.716 11.716 30.71 0 42.426L556.196 512.861z"  /></svg>