<?xml version="1.0" standalone="no"?><!DOCTYPE svg PUBLIC "-//W3C//DTD SVG 1.1//EN" "http://www.w3.org/Graphics/SVG/1.1/DTD/svg11.dtd"><svg class="icon" width="200px" height="200.00px" viewBox="0 0 1024 1024" version="1.1" xmlns="http://www.w3.org/2000/svg"><path fill="#ffffff" d="M491.292444 523.377778l69.859556 119.694222-69.859556 119.239111h-140.174222l-69.859555-119.694222L351.118222 523.377778h140.174222m12.970667-22.755556h-166.343111l-83.057778 141.994667 83.057778 142.449778h166.343111l83.057778-142.449778L504.263111 500.622222z"  /><path fill="#ffffff" d="M718.392889 392.078222l69.859555 119.694222-69.859555 119.694223h-140.174222l-69.859556-119.694223 69.859556-119.694222h140.174222m13.198222-22.755555h-166.343111l-83.057778 142.449777 83.057778 142.449778h166.343111l83.057778-142.449778-83.057778-142.449777z"  /><path fill="#ffffff" d="M491.292444 261.688889l69.859556 119.694222L491.292444 500.622222h-140.174222l-69.859555-119.694222 69.859555-119.694222h140.174222m12.970667-22.755556h-166.343111l-83.057778 142.904889L337.92 523.377778h166.343111l83.057778-142.449778-83.057778-141.994667z"  /><path fill="#ffffff" d="M512 1024A512 512 0 1 1 1024 512 512.455111 512.455111 0 0 1 512 1024z m0-1001.244444A489.244444 489.244444 0 1 0 1001.244444 512 489.699556 489.699556 0 0 0 512 22.755556z"  /></svg>