<?xml version="1.0" standalone="no"?><!DOCTYPE svg PUBLIC "-//W3C//DTD SVG 1.1//EN" "http://www.w3.org/Graphics/SVG/1.1/DTD/svg11.dtd"><svg class="icon" width="200px" height="200.00px" viewBox="0 0 1024 1024" version="1.1" xmlns="http://www.w3.org/2000/svg"><path fill="#ffffff" d="M512 107.2a414.064 414.064 0 0 1 231.408 70.24l-47.616 64.432A334.432 334.432 0 0 0 512 187.2c-185.568 0-336 150.432-336 336s150.432 336 336 336 336-150.432 336-336c0-2.992-0.032-5.968-0.112-8.944l5.44 8.944 74.592-7.92c0.048 2.624 0.08 5.28 0.08 7.92 0 229.744-186.24 416-416 416S96 752.944 96 523.2c0-229.76 186.24-416 416-416z"  /><path fill="#ffffff" d="M888 555.2a40 40 0 1 0-40-40v8.512c0 18.4 20.848 31.488 40 31.488zM863.872 334.48l-177.232-5.808a32 32 0 0 1-23.856-52.08l122.4-151.744a32 32 0 0 1 55.136 9.584l54.832 157.536a32 32 0 0 1-31.28 42.512z"  /></svg>